<?xml version="1.0" encoding="utf-8" standalone="no"?>
<!DOCTYPE svg PUBLIC "-//W3C//DTD SVG 1.1//EN"
  "http://www.w3.org/Graphics/SVG/1.1/DTD/svg11.dtd">
<svg xmlns:xlink="http://www.w3.org/1999/xlink" width="416.052813pt" height="325.986375pt" viewBox="0 0 416.052813 325.986375" xmlns="http://www.w3.org/2000/svg" version="1.1">
 <metadata>
  <rdf:RDF xmlns:dc="http://purl.org/dc/elements/1.1/" xmlns:cc="http://creativecommons.org/ns#" xmlns:rdf="http://www.w3.org/1999/02/22-rdf-syntax-ns#">
   <cc:Work>
    <dc:type rdf:resource="http://purl.org/dc/dcmitype/StillImage"/>
    <dc:date>2023-04-28T13:33:42.910467</dc:date>
    <dc:format>image/svg+xml</dc:format>
    <dc:creator>
     <cc:Agent>
      <dc:title>Matplotlib v3.6.3, https://matplotlib.org/</dc:title>
     </cc:Agent>
    </dc:creator>
   </cc:Work>
  </rdf:RDF>
 </metadata>
 <defs>
  <style type="text/css">*{stroke-linejoin: round; stroke-linecap: butt}</style>
 </defs>
 <g id="figure_1">
  <g id="patch_1">
   <path d="M 0 325.986375 
L 416.052813 325.986375 
L 416.052813 0 
L 0 0 
z
" style="fill: #ffffff"/>
  </g>
  <g id="axes_1">
   <g id="patch_2">
    <path d="M 43.78125 288.430125 
L 400.90125 288.430125 
L 400.90125 22.318125 
L 43.78125 22.318125 
z
" style="fill: #ffffff"/>
   </g>
   <g id="matplotlib.axis_1">
    <g id="xtick_1">
     <g id="line2d_1">
      <defs>
       <path id="m1f5308f789" d="M 0 0 
L 0 3.5 
" style="stroke: #000000; stroke-width: 0.8"/>
      </defs>
      <g>
       <use xlink:href="#m1f5308f789" x="60.786964" y="288.430125" style="stroke: #000000; stroke-width: 0.8"/>
      </g>
     </g>
     <g id="text_1">
      <!-- 0.0 -->
      <g transform="translate(52.835402 303.028562) scale(0.1 -0.1)">
       <defs>
        <path id="DejaVuSans-30" d="M 2034 4250 
Q 1547 4250 1301 3770 
Q 1056 3291 1056 2328 
Q 1056 1369 1301 889 
Q 1547 409 2034 409 
Q 2525 409 2770 889 
Q 3016 1369 3016 2328 
Q 3016 3291 2770 3770 
Q 2525 4250 2034 4250 
z
M 2034 4750 
Q 2819 4750 3233 4129 
Q 3647 3509 3647 2328 
Q 3647 1150 3233 529 
Q 2819 -91 2034 -91 
Q 1250 -91 836 529 
Q 422 1150 422 2328 
Q 422 3509 836 4129 
Q 1250 4750 2034 4750 
z
" transform="scale(0.015625)"/>
        <path id="DejaVuSans-2e" d="M 684 794 
L 1344 794 
L 1344 0 
L 684 0 
L 684 794 
z
" transform="scale(0.015625)"/>
       </defs>
       <use xlink:href="#DejaVuSans-30"/>
       <use xlink:href="#DejaVuSans-2e" x="63.623047"/>
       <use xlink:href="#DejaVuSans-30" x="95.410156"/>
      </g>
     </g>
    </g>
    <g id="xtick_2">
     <g id="line2d_2">
      <g>
       <use xlink:href="#m1f5308f789" x="128.809821" y="288.430125" style="stroke: #000000; stroke-width: 0.8"/>
      </g>
     </g>
     <g id="text_2">
      <!-- 0.2 -->
      <g transform="translate(120.858259 303.028562) scale(0.1 -0.1)">
       <defs>
        <path id="DejaVuSans-32" d="M 1228 531 
L 3431 531 
L 3431 0 
L 469 0 
L 469 531 
Q 828 903 1448 1529 
Q 2069 2156 2228 2338 
Q 2531 2678 2651 2914 
Q 2772 3150 2772 3378 
Q 2772 3750 2511 3984 
Q 2250 4219 1831 4219 
Q 1534 4219 1204 4116 
Q 875 4013 500 3803 
L 500 4441 
Q 881 4594 1212 4672 
Q 1544 4750 1819 4750 
Q 2544 4750 2975 4387 
Q 3406 4025 3406 3419 
Q 3406 3131 3298 2873 
Q 3191 2616 2906 2266 
Q 2828 2175 2409 1742 
Q 1991 1309 1228 531 
z
" transform="scale(0.015625)"/>
       </defs>
       <use xlink:href="#DejaVuSans-30"/>
       <use xlink:href="#DejaVuSans-2e" x="63.623047"/>
       <use xlink:href="#DejaVuSans-32" x="95.410156"/>
      </g>
     </g>
    </g>
    <g id="xtick_3">
     <g id="line2d_3">
      <g>
       <use xlink:href="#m1f5308f789" x="196.832679" y="288.430125" style="stroke: #000000; stroke-width: 0.8"/>
      </g>
     </g>
     <g id="text_3">
      <!-- 0.4 -->
      <g transform="translate(188.881116 303.028562) scale(0.1 -0.1)">
       <defs>
        <path id="DejaVuSans-34" d="M 2419 4116 
L 825 1625 
L 2419 1625 
L 2419 4116 
z
M 2253 4666 
L 3047 4666 
L 3047 1625 
L 3713 1625 
L 3713 1100 
L 3047 1100 
L 3047 0 
L 2419 0 
L 2419 1100 
L 313 1100 
L 313 1709 
L 2253 4666 
z
" transform="scale(0.015625)"/>
       </defs>
       <use xlink:href="#DejaVuSans-30"/>
       <use xlink:href="#DejaVuSans-2e" x="63.623047"/>
       <use xlink:href="#DejaVuSans-34" x="95.410156"/>
      </g>
     </g>
    </g>
    <g id="xtick_4">
     <g id="line2d_4">
      <g>
       <use xlink:href="#m1f5308f789" x="264.855536" y="288.430125" style="stroke: #000000; stroke-width: 0.8"/>
      </g>
     </g>
     <g id="text_4">
      <!-- 0.6 -->
      <g transform="translate(256.903973 303.028562) scale(0.1 -0.1)">
       <defs>
        <path id="DejaVuSans-36" d="M 2113 2584 
Q 1688 2584 1439 2293 
Q 1191 2003 1191 1497 
Q 1191 994 1439 701 
Q 1688 409 2113 409 
Q 2538 409 2786 701 
Q 3034 994 3034 1497 
Q 3034 2003 2786 2293 
Q 2538 2584 2113 2584 
z
M 3366 4563 
L 3366 3988 
Q 3128 4100 2886 4159 
Q 2644 4219 2406 4219 
Q 1781 4219 1451 3797 
Q 1122 3375 1075 2522 
Q 1259 2794 1537 2939 
Q 1816 3084 2150 3084 
Q 2853 3084 3261 2657 
Q 3669 2231 3669 1497 
Q 3669 778 3244 343 
Q 2819 -91 2113 -91 
Q 1303 -91 875 529 
Q 447 1150 447 2328 
Q 447 3434 972 4092 
Q 1497 4750 2381 4750 
Q 2619 4750 2861 4703 
Q 3103 4656 3366 4563 
z
" transform="scale(0.015625)"/>
       </defs>
       <use xlink:href="#DejaVuSans-30"/>
       <use xlink:href="#DejaVuSans-2e" x="63.623047"/>
       <use xlink:href="#DejaVuSans-36" x="95.410156"/>
      </g>
     </g>
    </g>
    <g id="xtick_5">
     <g id="line2d_5">
      <g>
       <use xlink:href="#m1f5308f789" x="332.878393" y="288.430125" style="stroke: #000000; stroke-width: 0.8"/>
      </g>
     </g>
     <g id="text_5">
      <!-- 0.8 -->
      <g transform="translate(324.92683 303.028562) scale(0.1 -0.1)">
       <defs>
        <path id="DejaVuSans-38" d="M 2034 2216 
Q 1584 2216 1326 1975 
Q 1069 1734 1069 1313 
Q 1069 891 1326 650 
Q 1584 409 2034 409 
Q 2484 409 2743 651 
Q 3003 894 3003 1313 
Q 3003 1734 2745 1975 
Q 2488 2216 2034 2216 
z
M 1403 2484 
Q 997 2584 770 2862 
Q 544 3141 544 3541 
Q 544 4100 942 4425 
Q 1341 4750 2034 4750 
Q 2731 4750 3128 4425 
Q 3525 4100 3525 3541 
Q 3525 3141 3298 2862 
Q 3072 2584 2669 2484 
Q 3125 2378 3379 2068 
Q 3634 1759 3634 1313 
Q 3634 634 3220 271 
Q 2806 -91 2034 -91 
Q 1263 -91 848 271 
Q 434 634 434 1313 
Q 434 1759 690 2068 
Q 947 2378 1403 2484 
z
M 1172 3481 
Q 1172 3119 1398 2916 
Q 1625 2713 2034 2713 
Q 2441 2713 2670 2916 
Q 2900 3119 2900 3481 
Q 2900 3844 2670 4047 
Q 2441 4250 2034 4250 
Q 1625 4250 1398 4047 
Q 1172 3844 1172 3481 
z
" transform="scale(0.015625)"/>
       </defs>
       <use xlink:href="#DejaVuSans-30"/>
       <use xlink:href="#DejaVuSans-2e" x="63.623047"/>
       <use xlink:href="#DejaVuSans-38" x="95.410156"/>
      </g>
     </g>
    </g>
    <g id="xtick_6">
     <g id="line2d_6">
      <g>
       <use xlink:href="#m1f5308f789" x="400.90125" y="288.430125" style="stroke: #000000; stroke-width: 0.8"/>
      </g>
     </g>
     <g id="text_6">
      <!-- 1.0 -->
      <g transform="translate(392.949688 303.028562) scale(0.1 -0.1)">
       <defs>
        <path id="DejaVuSans-31" d="M 794 531 
L 1825 531 
L 1825 4091 
L 703 3866 
L 703 4441 
L 1819 4666 
L 2450 4666 
L 2450 531 
L 3481 531 
L 3481 0 
L 794 0 
L 794 531 
z
" transform="scale(0.015625)"/>
       </defs>
       <use xlink:href="#DejaVuSans-31"/>
       <use xlink:href="#DejaVuSans-2e" x="63.623047"/>
       <use xlink:href="#DejaVuSans-30" x="95.410156"/>
      </g>
     </g>
    </g>
    <g id="text_7">
     <!-- False Positive Rate -->
     <g transform="translate(175.874844 316.706687) scale(0.1 -0.1)">
      <defs>
       <path id="DejaVuSans-46" d="M 628 4666 
L 3309 4666 
L 3309 4134 
L 1259 4134 
L 1259 2759 
L 3109 2759 
L 3109 2228 
L 1259 2228 
L 1259 0 
L 628 0 
L 628 4666 
z
" transform="scale(0.015625)"/>
       <path id="DejaVuSans-61" d="M 2194 1759 
Q 1497 1759 1228 1600 
Q 959 1441 959 1056 
Q 959 750 1161 570 
Q 1363 391 1709 391 
Q 2188 391 2477 730 
Q 2766 1069 2766 1631 
L 2766 1759 
L 2194 1759 
z
M 3341 1997 
L 3341 0 
L 2766 0 
L 2766 531 
Q 2569 213 2275 61 
Q 1981 -91 1556 -91 
Q 1019 -91 701 211 
Q 384 513 384 1019 
Q 384 1609 779 1909 
Q 1175 2209 1959 2209 
L 2766 2209 
L 2766 2266 
Q 2766 2663 2505 2880 
Q 2244 3097 1772 3097 
Q 1472 3097 1187 3025 
Q 903 2953 641 2809 
L 641 3341 
Q 956 3463 1253 3523 
Q 1550 3584 1831 3584 
Q 2591 3584 2966 3190 
Q 3341 2797 3341 1997 
z
" transform="scale(0.015625)"/>
       <path id="DejaVuSans-6c" d="M 603 4863 
L 1178 4863 
L 1178 0 
L 603 0 
L 603 4863 
z
" transform="scale(0.015625)"/>
       <path id="DejaVuSans-73" d="M 2834 3397 
L 2834 2853 
Q 2591 2978 2328 3040 
Q 2066 3103 1784 3103 
Q 1356 3103 1142 2972 
Q 928 2841 928 2578 
Q 928 2378 1081 2264 
Q 1234 2150 1697 2047 
L 1894 2003 
Q 2506 1872 2764 1633 
Q 3022 1394 3022 966 
Q 3022 478 2636 193 
Q 2250 -91 1575 -91 
Q 1294 -91 989 -36 
Q 684 19 347 128 
L 347 722 
Q 666 556 975 473 
Q 1284 391 1588 391 
Q 1994 391 2212 530 
Q 2431 669 2431 922 
Q 2431 1156 2273 1281 
Q 2116 1406 1581 1522 
L 1381 1569 
Q 847 1681 609 1914 
Q 372 2147 372 2553 
Q 372 3047 722 3315 
Q 1072 3584 1716 3584 
Q 2034 3584 2315 3537 
Q 2597 3491 2834 3397 
z
" transform="scale(0.015625)"/>
       <path id="DejaVuSans-65" d="M 3597 1894 
L 3597 1613 
L 953 1613 
Q 991 1019 1311 708 
Q 1631 397 2203 397 
Q 2534 397 2845 478 
Q 3156 559 3463 722 
L 3463 178 
Q 3153 47 2828 -22 
Q 2503 -91 2169 -91 
Q 1331 -91 842 396 
Q 353 884 353 1716 
Q 353 2575 817 3079 
Q 1281 3584 2069 3584 
Q 2775 3584 3186 3129 
Q 3597 2675 3597 1894 
z
M 3022 2063 
Q 3016 2534 2758 2815 
Q 2500 3097 2075 3097 
Q 1594 3097 1305 2825 
Q 1016 2553 972 2059 
L 3022 2063 
z
" transform="scale(0.015625)"/>
       <path id="DejaVuSans-20" transform="scale(0.015625)"/>
       <path id="DejaVuSans-50" d="M 1259 4147 
L 1259 2394 
L 2053 2394 
Q 2494 2394 2734 2622 
Q 2975 2850 2975 3272 
Q 2975 3691 2734 3919 
Q 2494 4147 2053 4147 
L 1259 4147 
z
M 628 4666 
L 2053 4666 
Q 2838 4666 3239 4311 
Q 3641 3956 3641 3272 
Q 3641 2581 3239 2228 
Q 2838 1875 2053 1875 
L 1259 1875 
L 1259 0 
L 628 0 
L 628 4666 
z
" transform="scale(0.015625)"/>
       <path id="DejaVuSans-6f" d="M 1959 3097 
Q 1497 3097 1228 2736 
Q 959 2375 959 1747 
Q 959 1119 1226 758 
Q 1494 397 1959 397 
Q 2419 397 2687 759 
Q 2956 1122 2956 1747 
Q 2956 2369 2687 2733 
Q 2419 3097 1959 3097 
z
M 1959 3584 
Q 2709 3584 3137 3096 
Q 3566 2609 3566 1747 
Q 3566 888 3137 398 
Q 2709 -91 1959 -91 
Q 1206 -91 779 398 
Q 353 888 353 1747 
Q 353 2609 779 3096 
Q 1206 3584 1959 3584 
z
" transform="scale(0.015625)"/>
       <path id="DejaVuSans-69" d="M 603 3500 
L 1178 3500 
L 1178 0 
L 603 0 
L 603 3500 
z
M 603 4863 
L 1178 4863 
L 1178 4134 
L 603 4134 
L 603 4863 
z
" transform="scale(0.015625)"/>
       <path id="DejaVuSans-74" d="M 1172 4494 
L 1172 3500 
L 2356 3500 
L 2356 3053 
L 1172 3053 
L 1172 1153 
Q 1172 725 1289 603 
Q 1406 481 1766 481 
L 2356 481 
L 2356 0 
L 1766 0 
Q 1100 0 847 248 
Q 594 497 594 1153 
L 594 3053 
L 172 3053 
L 172 3500 
L 594 3500 
L 594 4494 
L 1172 4494 
z
" transform="scale(0.015625)"/>
       <path id="DejaVuSans-76" d="M 191 3500 
L 800 3500 
L 1894 563 
L 2988 3500 
L 3597 3500 
L 2284 0 
L 1503 0 
L 191 3500 
z
" transform="scale(0.015625)"/>
       <path id="DejaVuSans-52" d="M 2841 2188 
Q 3044 2119 3236 1894 
Q 3428 1669 3622 1275 
L 4263 0 
L 3584 0 
L 2988 1197 
Q 2756 1666 2539 1819 
Q 2322 1972 1947 1972 
L 1259 1972 
L 1259 0 
L 628 0 
L 628 4666 
L 2053 4666 
Q 2853 4666 3247 4331 
Q 3641 3997 3641 3322 
Q 3641 2881 3436 2590 
Q 3231 2300 2841 2188 
z
M 1259 4147 
L 1259 2491 
L 2053 2491 
Q 2509 2491 2742 2702 
Q 2975 2913 2975 3322 
Q 2975 3731 2742 3939 
Q 2509 4147 2053 4147 
L 1259 4147 
z
" transform="scale(0.015625)"/>
      </defs>
      <use xlink:href="#DejaVuSans-46"/>
      <use xlink:href="#DejaVuSans-61" x="48.394531"/>
      <use xlink:href="#DejaVuSans-6c" x="109.673828"/>
      <use xlink:href="#DejaVuSans-73" x="137.457031"/>
      <use xlink:href="#DejaVuSans-65" x="189.556641"/>
      <use xlink:href="#DejaVuSans-20" x="251.080078"/>
      <use xlink:href="#DejaVuSans-50" x="282.867188"/>
      <use xlink:href="#DejaVuSans-6f" x="339.544922"/>
      <use xlink:href="#DejaVuSans-73" x="400.726562"/>
      <use xlink:href="#DejaVuSans-69" x="452.826172"/>
      <use xlink:href="#DejaVuSans-74" x="480.609375"/>
      <use xlink:href="#DejaVuSans-69" x="519.818359"/>
      <use xlink:href="#DejaVuSans-76" x="547.601562"/>
      <use xlink:href="#DejaVuSans-65" x="606.78125"/>
      <use xlink:href="#DejaVuSans-20" x="668.304688"/>
      <use xlink:href="#DejaVuSans-52" x="700.091797"/>
      <use xlink:href="#DejaVuSans-61" x="767.324219"/>
      <use xlink:href="#DejaVuSans-74" x="828.603516"/>
      <use xlink:href="#DejaVuSans-65" x="867.8125"/>
     </g>
    </g>
   </g>
   <g id="matplotlib.axis_2">
    <g id="ytick_1">
     <g id="line2d_7">
      <defs>
       <path id="m20bb549125" d="M 0 0 
L -3.5 0 
" style="stroke: #000000; stroke-width: 0.8"/>
      </defs>
      <g>
       <use xlink:href="#m20bb549125" x="43.78125" y="288.430125" style="stroke: #000000; stroke-width: 0.8"/>
      </g>
     </g>
     <g id="text_8">
      <!-- 0.0 -->
      <g transform="translate(20.878125 292.229344) scale(0.1 -0.1)">
       <use xlink:href="#DejaVuSans-30"/>
       <use xlink:href="#DejaVuSans-2e" x="63.623047"/>
       <use xlink:href="#DejaVuSans-30" x="95.410156"/>
      </g>
     </g>
    </g>
    <g id="ytick_2">
     <g id="line2d_8">
      <g>
       <use xlink:href="#m20bb549125" x="43.78125" y="237.742125" style="stroke: #000000; stroke-width: 0.8"/>
      </g>
     </g>
     <g id="text_9">
      <!-- 0.2 -->
      <g transform="translate(20.878125 241.541344) scale(0.1 -0.1)">
       <use xlink:href="#DejaVuSans-30"/>
       <use xlink:href="#DejaVuSans-2e" x="63.623047"/>
       <use xlink:href="#DejaVuSans-32" x="95.410156"/>
      </g>
     </g>
    </g>
    <g id="ytick_3">
     <g id="line2d_9">
      <g>
       <use xlink:href="#m20bb549125" x="43.78125" y="187.054125" style="stroke: #000000; stroke-width: 0.8"/>
      </g>
     </g>
     <g id="text_10">
      <!-- 0.4 -->
      <g transform="translate(20.878125 190.853344) scale(0.1 -0.1)">
       <use xlink:href="#DejaVuSans-30"/>
       <use xlink:href="#DejaVuSans-2e" x="63.623047"/>
       <use xlink:href="#DejaVuSans-34" x="95.410156"/>
      </g>
     </g>
    </g>
    <g id="ytick_4">
     <g id="line2d_10">
      <g>
       <use xlink:href="#m20bb549125" x="43.78125" y="136.366125" style="stroke: #000000; stroke-width: 0.8"/>
      </g>
     </g>
     <g id="text_11">
      <!-- 0.6 -->
      <g transform="translate(20.878125 140.165344) scale(0.1 -0.1)">
       <use xlink:href="#DejaVuSans-30"/>
       <use xlink:href="#DejaVuSans-2e" x="63.623047"/>
       <use xlink:href="#DejaVuSans-36" x="95.410156"/>
      </g>
     </g>
    </g>
    <g id="ytick_5">
     <g id="line2d_11">
      <g>
       <use xlink:href="#m20bb549125" x="43.78125" y="85.678125" style="stroke: #000000; stroke-width: 0.8"/>
      </g>
     </g>
     <g id="text_12">
      <!-- 0.8 -->
      <g transform="translate(20.878125 89.477344) scale(0.1 -0.1)">
       <use xlink:href="#DejaVuSans-30"/>
       <use xlink:href="#DejaVuSans-2e" x="63.623047"/>
       <use xlink:href="#DejaVuSans-38" x="95.410156"/>
      </g>
     </g>
    </g>
    <g id="ytick_6">
     <g id="line2d_12">
      <g>
       <use xlink:href="#m20bb549125" x="43.78125" y="34.990125" style="stroke: #000000; stroke-width: 0.8"/>
      </g>
     </g>
     <g id="text_13">
      <!-- 1.0 -->
      <g transform="translate(20.878125 38.789344) scale(0.1 -0.1)">
       <use xlink:href="#DejaVuSans-31"/>
       <use xlink:href="#DejaVuSans-2e" x="63.623047"/>
       <use xlink:href="#DejaVuSans-30" x="95.410156"/>
      </g>
     </g>
    </g>
    <g id="text_14">
     <!-- True Positive Rate -->
     <g transform="translate(14.798438 199.903812) rotate(-90) scale(0.1 -0.1)">
      <defs>
       <path id="DejaVuSans-54" d="M -19 4666 
L 3928 4666 
L 3928 4134 
L 2272 4134 
L 2272 0 
L 1638 0 
L 1638 4134 
L -19 4134 
L -19 4666 
z
" transform="scale(0.015625)"/>
       <path id="DejaVuSans-72" d="M 2631 2963 
Q 2534 3019 2420 3045 
Q 2306 3072 2169 3072 
Q 1681 3072 1420 2755 
Q 1159 2438 1159 1844 
L 1159 0 
L 581 0 
L 581 3500 
L 1159 3500 
L 1159 2956 
Q 1341 3275 1631 3429 
Q 1922 3584 2338 3584 
Q 2397 3584 2469 3576 
Q 2541 3569 2628 3553 
L 2631 2963 
z
" transform="scale(0.015625)"/>
       <path id="DejaVuSans-75" d="M 544 1381 
L 544 3500 
L 1119 3500 
L 1119 1403 
Q 1119 906 1312 657 
Q 1506 409 1894 409 
Q 2359 409 2629 706 
Q 2900 1003 2900 1516 
L 2900 3500 
L 3475 3500 
L 3475 0 
L 2900 0 
L 2900 538 
Q 2691 219 2414 64 
Q 2138 -91 1772 -91 
Q 1169 -91 856 284 
Q 544 659 544 1381 
z
M 1991 3584 
L 1991 3584 
z
" transform="scale(0.015625)"/>
      </defs>
      <use xlink:href="#DejaVuSans-54"/>
      <use xlink:href="#DejaVuSans-72" x="46.333984"/>
      <use xlink:href="#DejaVuSans-75" x="87.447266"/>
      <use xlink:href="#DejaVuSans-65" x="150.826172"/>
      <use xlink:href="#DejaVuSans-20" x="212.349609"/>
      <use xlink:href="#DejaVuSans-50" x="244.136719"/>
      <use xlink:href="#DejaVuSans-6f" x="300.814453"/>
      <use xlink:href="#DejaVuSans-73" x="361.996094"/>
      <use xlink:href="#DejaVuSans-69" x="414.095703"/>
      <use xlink:href="#DejaVuSans-74" x="441.878906"/>
      <use xlink:href="#DejaVuSans-69" x="481.087891"/>
      <use xlink:href="#DejaVuSans-76" x="508.871094"/>
      <use xlink:href="#DejaVuSans-65" x="568.050781"/>
      <use xlink:href="#DejaVuSans-20" x="629.574219"/>
      <use xlink:href="#DejaVuSans-52" x="661.361328"/>
      <use xlink:href="#DejaVuSans-61" x="728.59375"/>
      <use xlink:href="#DejaVuSans-74" x="789.873047"/>
      <use xlink:href="#DejaVuSans-65" x="829.082031"/>
     </g>
    </g>
   </g>
   <g id="line2d_13">
    <path d="M 60.786964 288.430125 
L 61.158268 288.430125 
L 64.500002 288.430125 
L 65.24261 288.430125 
L 67.099129 288.430125 
L 67.470433 280.750125 
L 68.21304 280.750125 
L 68.955648 280.750125 
L 68.955648 273.070125 
L 70.440863 273.070125 
L 71.183471 257.710125 
L 71.183471 242.350125 
L 71.554775 242.350125 
L 71.554775 219.310125 
L 71.926078 219.310125 
L 71.926078 211.630125 
L 72.297382 203.950125 
L 72.297382 188.590125 
L 72.668686 180.910125 
L 73.03999 180.910125 
L 73.03999 173.230125 
L 73.411294 173.230125 
L 73.411294 165.550125 
L 74.896509 165.550125 
L 74.896509 157.870125 
L 75.267813 150.190125 
L 75.267813 134.830125 
L 76.381724 134.830125 
L 76.381724 119.470125 
L 78.609547 119.470125 
L 78.609547 111.790125 
L 79.352155 111.790125 
L 79.352155 104.110125 
L 79.723458 96.430125 
L 80.094762 96.430125 
L 80.094762 88.750125 
L 81.951281 88.750125 
L 81.951281 73.390125 
L 82.693889 73.390125 
L 82.693889 65.710125 
L 83.065193 65.710125 
L 83.8078 65.710125 
L 86.778231 65.710125 
L 87.149534 58.030125 
L 87.520838 58.030125 
L 87.520838 50.350125 
L 90.119965 50.350125 
L 90.119965 42.670125 
L 90.862573 42.670125 
L 103.858206 42.670125 
L 103.858206 34.990125 
L 133.191206 34.990125 
L 134.676422 34.990125 
L 160.296384 34.990125 
L 161.038992 34.990125 
L 162.524207 34.990125 
L 164.009422 34.990125 
L 165.123334 34.990125 
L 166.608549 34.990125 
L 173.663321 34.990125 
L 174.405929 34.990125 
L 201.88241 34.990125 
L 202.625018 34.990125 
L 240.86931 34.990125 
L 241.611917 34.990125 
L 244.582348 34.990125 
L 245.696259 34.990125 
L 252.008424 34.990125 
L 252.751032 34.990125 
L 257.949285 34.990125 
L 258.691893 34.990125 
L 266.860576 34.990125 
L 267.603184 34.990125 
L 270.202311 34.990125 
L 270.944918 34.990125 
L 273.544045 34.990125 
L 274.286652 34.990125 
L 276.885779 34.990125 
L 277.628387 34.990125 
L 309.931818 34.990125 
L 310.674425 34.990125 
L 311.045729 34.990125 
L 311.788337 34.990125 
L 316.243982 34.990125 
L 317.357894 34.990125 
L 319.585717 34.990125 
L 320.328324 34.990125 
L 324.041362 34.990125 
L 324.78397 34.990125 
L 325.526578 34.990125 
L 326.269185 34.990125 
L 326.640489 34.990125 
L 327.383097 34.990125 
L 329.239616 34.990125 
L 329.982223 34.990125 
L 331.096135 34.990125 
L 331.838742 34.990125 
L 334.066565 34.990125 
L 335.923084 34.990125 
L 339.264818 34.990125 
L 340.007426 34.990125 
L 341.863945 34.990125 
L 342.606553 34.990125 
L 346.319591 34.990125 
L 347.804806 34.990125 
L 348.547413 34.990125 
L 350.032629 34.990125 
L 350.775236 34.990125 
L 351.517844 34.990125 
L 352.260451 34.990125 
L 353.003059 34.990125 
L 354.488274 34.990125 
L 357.830009 34.990125 
L 359.686528 34.990125 
L 360.429135 34.990125 
L 360.800439 34.990125 
L 362.285654 34.990125 
L 364.142173 34.990125 
L 364.513477 34.990125 
L 367.483908 34.990125 
L 368.226515 34.990125 
L 369.340427 34.990125 
L 370.083034 34.990125 
L 373.053465 34.990125 
L 400.90125 34.990125 
" clip-path="url(#pf0f1e59666)" style="fill: none; stroke: #0000ff; stroke-width: 2; stroke-linecap: square"/>
   </g>
   <g id="line2d_14">
    <path d="M 60.786964 288.430125 
L 64.053804 288.430125 
L 64.416786 267.310125 
L 64.779768 267.310125 
L 64.779768 225.070125 
L 65.14275 225.070125 
L 65.505732 203.950125 
L 65.868715 203.950125 
L 65.868715 182.830125 
L 67.320643 182.830125 
L 67.320643 119.470125 
L 68.046608 119.470125 
L 68.046608 77.230125 
L 106.159735 77.230125 
L 106.159735 56.110125 
L 112.330431 56.110125 
L 112.330431 34.990125 
L 400.90125 34.990125 
L 400.90125 34.990125 
" clip-path="url(#pf0f1e59666)" style="fill: none; stroke: #800080; stroke-width: 2; stroke-linecap: square"/>
   </g>
   <g id="line2d_15">
    <path d="M 60.786964 288.430125 
L 61.146113 288.430125 
L 61.505263 288.430125 
L 61.505263 34.990125 
L 63.660158 34.990125 
L 64.378456 34.990125 
L 66.533351 34.990125 
L 67.25165 34.990125 
L 67.610799 34.990125 
L 68.329097 34.990125 
L 69.047396 34.990125 
L 70.124843 34.990125 
L 70.483992 34.990125 
L 71.56144 34.990125 
L 72.279738 34.990125 
L 72.998037 34.990125 
L 73.357186 34.990125 
L 74.434634 34.990125 
L 76.589529 34.990125 
L 400.90125 34.990125 
" clip-path="url(#pf0f1e59666)" style="fill: none; stroke: #ffa500; stroke-width: 2; stroke-linecap: square"/>
   </g>
   <g id="line2d_16">
    <path d="M 60.786964 288.430125 
L 64.8055 288.430125 
L 65.170822 274.350125 
L 66.266786 274.350125 
L 66.266786 260.270125 
L 66.632108 260.270125 
L 66.632108 246.190125 
L 66.997429 246.190125 
L 67.362751 232.110125 
L 67.728072 232.110125 
L 67.728072 203.950125 
L 68.458715 203.950125 
L 68.458715 189.870125 
L 68.824037 189.870125 
L 68.824037 161.710125 
L 69.189358 161.710125 
L 69.189358 147.630125 
L 69.554679 133.550125 
L 70.285322 133.550125 
L 70.285322 119.470125 
L 70.650644 119.470125 
L 70.650644 105.390125 
L 72.11193 105.390125 
L 72.11193 91.310125 
L 72.842573 91.310125 
L 72.842573 77.230125 
L 77.22643 77.230125 
L 77.22643 63.150125 
L 89.282039 63.150125 
L 89.282039 49.070125 
L 93.300575 49.070125 
L 93.300575 34.990125 
L 400.90125 34.990125 
L 400.90125 34.990125 
" clip-path="url(#pf0f1e59666)" style="fill: none; stroke: #00ffff; stroke-width: 2; stroke-linecap: square"/>
   </g>
   <g id="line2d_17">
    <path d="M 60.786964 288.430125 
L 69.948292 288.430125 
L 70.330014 284.06047 
L 75.2924 284.06047 
L 75.674122 279.690815 
L 76.819288 279.690815 
L 77.201009 275.321159 
L 79.873063 275.321159 
L 79.873063 270.951504 
L 80.254785 266.581849 
L 80.254785 262.212194 
L 80.636507 257.842539 
L 80.636507 253.472884 
L 81.018229 253.472884 
L 81.399951 249.103228 
L 81.399951 227.254953 
L 81.781673 227.254953 
L 81.781673 222.885297 
L 82.163395 218.515642 
L 82.163395 214.145987 
L 82.545117 214.145987 
L 82.545117 209.776332 
L 82.926839 205.406677 
L 82.926839 201.037022 
L 83.308561 201.037022 
L 83.690283 196.667366 
L 83.690283 192.297711 
L 84.072005 187.928056 
L 84.072005 174.819091 
L 84.453727 174.819091 
L 84.453727 161.710125 
L 84.835449 157.34047 
L 85.217171 157.34047 
L 85.217171 113.643918 
L 85.598893 113.643918 
L 85.598893 87.425987 
L 86.362337 87.425987 
L 86.362337 78.686677 
L 87.125781 78.686677 
L 87.125781 74.317022 
L 87.507503 74.317022 
L 87.889225 69.947366 
L 88.270947 69.947366 
L 88.270947 61.208056 
L 89.416113 61.208056 
L 89.416113 56.838401 
L 89.797835 56.838401 
L 89.797835 52.468746 
L 90.561279 52.468746 
L 90.561279 48.099091 
L 96.668831 48.099091 
L 96.668831 43.729435 
L 153.545406 43.729435 
L 153.927128 39.35978 
L 163.851899 39.35978 
L 164.233621 34.990125 
L 400.90125 34.990125 
L 400.90125 34.990125 
" clip-path="url(#pf0f1e59666)" style="fill: none; stroke: #808080; stroke-width: 2; stroke-linecap: square"/>
   </g>
   <g id="line2d_18">
    <path d="M 60.786964 288.430125 
L 60.786964 134.01635 
L 62.540131 134.01635 
L 62.540131 131.666575 
L 64.293297 131.666575 
L 64.293297 129.3168 
L 66.046464 129.3168 
L 66.046464 125.959979 
L 69.552796 125.959979 
L 69.552796 119.582019 
L 71.305963 119.582019 
L 71.305963 119.246337 
L 73.059129 119.246337 
L 73.059129 117.567926 
L 74.812296 117.567926 
L 74.812296 117.232244 
L 76.565462 117.232244 
L 76.565462 116.896562 
L 85.331294 116.896562 
L 85.331294 116.56088 
L 87.084461 116.56088 
L 87.084461 114.546787 
L 88.837627 114.546787 
L 88.837627 114.211105 
L 90.590793 114.211105 
L 90.590793 113.875423 
L 92.34396 113.875423 
L 92.34396 112.868377 
L 94.097126 112.868377 
L 94.097126 111.86133 
L 99.356626 111.86133 
L 99.356626 111.525648 
L 101.109792 111.525648 
L 101.109792 110.854284 
L 102.862958 110.854284 
L 102.862958 110.518602 
L 115.135123 110.518602 
L 115.135123 109.847238 
L 118.641456 109.847238 
L 118.641456 109.511555 
L 122.147789 109.511555 
L 123.900955 109.175873 
L 130.913621 109.175873 
L 130.913621 108.840191 
L 136.17312 108.840191 
L 136.17312 108.504509 
L 139.679453 108.504509 
L 139.679453 108.168827 
L 143.185786 108.168827 
L 143.185786 107.833145 
L 146.692119 107.833145 
L 146.692119 107.497463 
L 151.951618 107.497463 
L 151.951618 107.161781 
L 155.457951 107.161781 
L 157.211117 106.826099 
L 157.211117 106.154734 
L 158.964284 106.154734 
L 158.964284 105.819052 
L 160.71745 105.819052 
L 160.71745 104.812006 
L 164.223783 104.812006 
L 164.223783 104.140642 
L 165.97695 104.140642 
L 165.97695 103.804959 
L 167.730116 103.469277 
L 171.236449 103.469277 
L 171.236449 103.133595 
L 172.989615 103.133595 
L 172.989615 102.797913 
L 174.742782 102.797913 
L 174.742782 102.462231 
L 185.26178 102.462231 
L 185.26178 102.126549 
L 199.287112 102.126549 
L 199.287112 101.790867 
L 202.793444 101.790867 
L 202.793444 101.455185 
L 204.546611 101.455185 
L 206.299777 101.119502 
L 206.299777 100.78382 
L 216.818776 100.78382 
L 218.571942 100.448138 
L 222.078275 100.448138 
L 222.078275 100.112456 
L 223.831441 100.112456 
L 225.584608 99.776774 
L 234.35044 99.776774 
L 234.35044 99.441092 
L 236.103606 99.10541 
L 237.856773 99.10541 
L 241.363106 98.434046 
L 241.363106 98.098363 
L 243.116272 98.098363 
L 243.116272 97.762681 
L 244.869439 97.426999 
L 246.622605 97.426999 
L 248.375771 97.091317 
L 250.128938 97.091317 
L 251.882104 96.755635 
L 260.647936 96.755635 
L 260.647936 96.419953 
L 264.154269 96.419953 
L 264.154269 96.084271 
L 265.907436 96.084271 
L 265.907436 95.748589 
L 272.920101 95.748589 
L 272.920101 95.412906 
L 274.673268 95.412906 
L 278.179601 94.741542 
L 283.4391 94.741542 
L 285.192266 94.40586 
L 290.451765 94.40586 
L 290.451765 93.398814 
L 292.204932 93.063132 
L 293.958098 93.063132 
L 293.958098 92.72745 
L 295.711265 92.391767 
L 295.711265 92.056085 
L 304.477097 92.056085 
L 306.230263 91.720403 
L 309.736596 91.720403 
L 311.489763 91.384721 
L 313.242929 91.384721 
L 314.996095 91.049039 
L 316.749262 91.049039 
L 316.749262 90.713357 
L 318.502428 90.377675 
L 322.008761 90.377675 
L 325.515094 89.70631 
L 329.021427 89.70631 
L 329.021427 89.370628 
L 330.774593 89.370628 
L 334.280926 88.699264 
L 334.280926 88.363582 
L 336.034092 88.0279 
L 337.787259 88.0279 
L 337.787259 87.692218 
L 339.540425 87.692218 
L 341.293592 87.356536 
L 341.293592 87.020853 
L 343.046758 86.685171 
L 343.046758 85.006761 
L 346.553091 84.335397 
L 348.306257 84.335397 
L 350.059424 83.999714 
L 350.059424 82.992668 
L 351.81259 82.992668 
L 351.81259 81.64994 
L 353.565757 81.314257 
L 355.318923 81.314257 
L 355.318923 80.978575 
L 357.072089 80.978575 
L 358.825256 80.642893 
L 358.825256 79.971529 
L 360.578422 79.971529 
L 360.578422 77.621754 
L 362.331589 77.621754 
L 362.331589 75.943344 
L 364.084755 75.607661 
L 364.084755 73.929251 
L 365.837922 73.593569 
L 369.344254 73.593569 
L 369.344254 72.25084 
L 371.097421 72.25084 
L 371.097421 70.908112 
L 372.850587 70.57243 
L 372.850587 68.222655 
L 374.603754 67.886973 
L 376.35692 67.886973 
L 376.35692 67.215608 
L 378.110087 67.215608 
L 378.110087 66.544244 
L 379.863253 66.544244 
L 379.863253 66.208562 
L 381.616419 65.87288 
L 381.616419 64.194469 
L 383.369586 64.194469 
L 383.369586 62.851741 
L 385.122752 62.516059 
L 385.122752 58.823555 
L 386.875919 58.487873 
L 386.875919 55.466734 
L 388.629085 55.466734 
L 388.629085 52.445595 
L 390.382251 52.109913 
L 390.382251 49.424456 
L 392.135418 49.424456 
L 392.135418 47.746046 
L 395.641751 47.746046 
L 395.641751 46.403317 
L 397.394917 46.067635 
L 397.394917 43.382178 
L 399.148084 43.046496 
L 399.148084 38.011264 
L 400.90125 37.675582 
L 400.90125 34.990125 
L 400.90125 34.990125 
" clip-path="url(#pf0f1e59666)" style="fill: none; stroke: #008000; stroke-width: 2; stroke-linecap: square"/>
   </g>
   <g id="line2d_19">
    <path d="M 60.786964 288.430125 
L 68.148745 288.430125 
L 68.884923 268.154925 
L 69.253013 268.154925 
L 69.989191 247.879725 
L 70.35728 247.879725 
L 70.35728 217.466925 
L 70.725369 217.466925 
L 71.093458 207.329325 
L 71.461547 207.329325 
L 71.461547 166.778925 
L 71.829636 166.778925 
L 72.197725 156.641325 
L 72.197725 136.366125 
L 72.565814 136.366125 
L 72.933903 126.228525 
L 73.301992 126.228525 
L 73.301992 105.953325 
L 74.03817 105.953325 
L 74.03817 95.815725 
L 74.406259 95.815725 
L 74.406259 75.540525 
L 75.878615 75.540525 
L 75.878615 55.265325 
L 79.927595 55.265325 
L 79.927595 45.127725 
L 92.074534 45.127725 
L 92.074534 34.990125 
L 400.90125 34.990125 
L 400.90125 34.990125 
" clip-path="url(#pf0f1e59666)" style="fill: none; stroke: #ff0000; stroke-width: 2; stroke-linecap: square"/>
   </g>
   <g id="line2d_20">
    <path d="M 60.786964 288.430125 
L 69.449897 288.430125 
L 69.826547 282.92056 
L 70.579845 282.92056 
L 70.579845 277.410995 
L 71.709793 277.410995 
L 72.086442 271.901429 
L 72.086442 266.391864 
L 72.463091 266.391864 
L 72.839741 260.882299 
L 73.21639 260.882299 
L 73.21639 255.372734 
L 73.593039 255.372734 
L 73.593039 244.353603 
L 75.852935 244.353603 
L 75.852935 238.844038 
L 76.606233 238.844038 
L 76.606233 233.334473 
L 76.982883 233.334473 
L 77.359532 227.824908 
L 77.359532 205.786647 
L 77.736181 205.786647 
L 77.736181 178.238821 
L 78.11283 172.729255 
L 78.11283 150.690995 
L 78.48948 145.181429 
L 78.48948 134.162299 
L 78.866129 128.652734 
L 78.866129 123.143168 
L 79.242778 123.143168 
L 79.619428 117.633603 
L 79.619428 90.085777 
L 81.126025 90.085777 
L 81.126025 79.066647 
L 124.44069 79.066647 
L 124.44069 73.557082 
L 126.323936 73.557082 
L 126.700586 68.047516 
L 129.33713 68.047516 
L 129.33713 62.537951 
L 140.259959 62.537951 
L 140.259959 57.028386 
L 141.389907 57.028386 
L 141.389907 51.518821 
L 154.572631 51.518821 
L 154.572631 46.009255 
L 162.105616 46.009255 
L 162.482266 40.49969 
L 225.006044 40.49969 
L 225.006044 34.990125 
L 400.90125 34.990125 
L 400.90125 34.990125 
" clip-path="url(#pf0f1e59666)" style="fill: none; stroke: #ff00ff; stroke-width: 2; stroke-linecap: square"/>
   </g>
   <g id="line2d_21">
    <path d="M 60.786964 288.430125 
L 400.90125 34.990125 
" clip-path="url(#pf0f1e59666)" style="fill: none; stroke-dasharray: 7.4,3.2; stroke-dashoffset: 0; stroke: #000000; stroke-width: 2"/>
   </g>
   <g id="patch_3">
    <path d="M 43.78125 288.430125 
L 43.78125 22.318125 
" style="fill: none; stroke: #000000; stroke-width: 0.8; stroke-linejoin: miter; stroke-linecap: square"/>
   </g>
   <g id="patch_4">
    <path d="M 400.90125 288.430125 
L 400.90125 22.318125 
" style="fill: none; stroke: #000000; stroke-width: 0.8; stroke-linejoin: miter; stroke-linecap: square"/>
   </g>
   <g id="patch_5">
    <path d="M 43.78125 288.430125 
L 400.90125 288.430125 
" style="fill: none; stroke: #000000; stroke-width: 0.8; stroke-linejoin: miter; stroke-linecap: square"/>
   </g>
   <g id="patch_6">
    <path d="M 43.78125 22.318125 
L 400.90125 22.318125 
" style="fill: none; stroke: #000000; stroke-width: 0.8; stroke-linejoin: miter; stroke-linecap: square"/>
   </g>
   <g id="text_15">
    <!-- Receiver operating characteristic for multiclass -->
    <g transform="translate(80.49 16.318125) scale(0.12 -0.12)">
     <defs>
      <path id="DejaVuSans-63" d="M 3122 3366 
L 3122 2828 
Q 2878 2963 2633 3030 
Q 2388 3097 2138 3097 
Q 1578 3097 1268 2742 
Q 959 2388 959 1747 
Q 959 1106 1268 751 
Q 1578 397 2138 397 
Q 2388 397 2633 464 
Q 2878 531 3122 666 
L 3122 134 
Q 2881 22 2623 -34 
Q 2366 -91 2075 -91 
Q 1284 -91 818 406 
Q 353 903 353 1747 
Q 353 2603 823 3093 
Q 1294 3584 2113 3584 
Q 2378 3584 2631 3529 
Q 2884 3475 3122 3366 
z
" transform="scale(0.015625)"/>
      <path id="DejaVuSans-70" d="M 1159 525 
L 1159 -1331 
L 581 -1331 
L 581 3500 
L 1159 3500 
L 1159 2969 
Q 1341 3281 1617 3432 
Q 1894 3584 2278 3584 
Q 2916 3584 3314 3078 
Q 3713 2572 3713 1747 
Q 3713 922 3314 415 
Q 2916 -91 2278 -91 
Q 1894 -91 1617 61 
Q 1341 213 1159 525 
z
M 3116 1747 
Q 3116 2381 2855 2742 
Q 2594 3103 2138 3103 
Q 1681 3103 1420 2742 
Q 1159 2381 1159 1747 
Q 1159 1113 1420 752 
Q 1681 391 2138 391 
Q 2594 391 2855 752 
Q 3116 1113 3116 1747 
z
" transform="scale(0.015625)"/>
      <path id="DejaVuSans-6e" d="M 3513 2113 
L 3513 0 
L 2938 0 
L 2938 2094 
Q 2938 2591 2744 2837 
Q 2550 3084 2163 3084 
Q 1697 3084 1428 2787 
Q 1159 2491 1159 1978 
L 1159 0 
L 581 0 
L 581 3500 
L 1159 3500 
L 1159 2956 
Q 1366 3272 1645 3428 
Q 1925 3584 2291 3584 
Q 2894 3584 3203 3211 
Q 3513 2838 3513 2113 
z
" transform="scale(0.015625)"/>
      <path id="DejaVuSans-67" d="M 2906 1791 
Q 2906 2416 2648 2759 
Q 2391 3103 1925 3103 
Q 1463 3103 1205 2759 
Q 947 2416 947 1791 
Q 947 1169 1205 825 
Q 1463 481 1925 481 
Q 2391 481 2648 825 
Q 2906 1169 2906 1791 
z
M 3481 434 
Q 3481 -459 3084 -895 
Q 2688 -1331 1869 -1331 
Q 1566 -1331 1297 -1286 
Q 1028 -1241 775 -1147 
L 775 -588 
Q 1028 -725 1275 -790 
Q 1522 -856 1778 -856 
Q 2344 -856 2625 -561 
Q 2906 -266 2906 331 
L 2906 616 
Q 2728 306 2450 153 
Q 2172 0 1784 0 
Q 1141 0 747 490 
Q 353 981 353 1791 
Q 353 2603 747 3093 
Q 1141 3584 1784 3584 
Q 2172 3584 2450 3431 
Q 2728 3278 2906 2969 
L 2906 3500 
L 3481 3500 
L 3481 434 
z
" transform="scale(0.015625)"/>
      <path id="DejaVuSans-68" d="M 3513 2113 
L 3513 0 
L 2938 0 
L 2938 2094 
Q 2938 2591 2744 2837 
Q 2550 3084 2163 3084 
Q 1697 3084 1428 2787 
Q 1159 2491 1159 1978 
L 1159 0 
L 581 0 
L 581 4863 
L 1159 4863 
L 1159 2956 
Q 1366 3272 1645 3428 
Q 1925 3584 2291 3584 
Q 2894 3584 3203 3211 
Q 3513 2838 3513 2113 
z
" transform="scale(0.015625)"/>
      <path id="DejaVuSans-66" d="M 2375 4863 
L 2375 4384 
L 1825 4384 
Q 1516 4384 1395 4259 
Q 1275 4134 1275 3809 
L 1275 3500 
L 2222 3500 
L 2222 3053 
L 1275 3053 
L 1275 0 
L 697 0 
L 697 3053 
L 147 3053 
L 147 3500 
L 697 3500 
L 697 3744 
Q 697 4328 969 4595 
Q 1241 4863 1831 4863 
L 2375 4863 
z
" transform="scale(0.015625)"/>
      <path id="DejaVuSans-6d" d="M 3328 2828 
Q 3544 3216 3844 3400 
Q 4144 3584 4550 3584 
Q 5097 3584 5394 3201 
Q 5691 2819 5691 2113 
L 5691 0 
L 5113 0 
L 5113 2094 
Q 5113 2597 4934 2840 
Q 4756 3084 4391 3084 
Q 3944 3084 3684 2787 
Q 3425 2491 3425 1978 
L 3425 0 
L 2847 0 
L 2847 2094 
Q 2847 2600 2669 2842 
Q 2491 3084 2119 3084 
Q 1678 3084 1418 2786 
Q 1159 2488 1159 1978 
L 1159 0 
L 581 0 
L 581 3500 
L 1159 3500 
L 1159 2956 
Q 1356 3278 1631 3431 
Q 1906 3584 2284 3584 
Q 2666 3584 2933 3390 
Q 3200 3197 3328 2828 
z
" transform="scale(0.015625)"/>
     </defs>
     <use xlink:href="#DejaVuSans-52"/>
     <use xlink:href="#DejaVuSans-65" x="64.982422"/>
     <use xlink:href="#DejaVuSans-63" x="126.505859"/>
     <use xlink:href="#DejaVuSans-65" x="181.486328"/>
     <use xlink:href="#DejaVuSans-69" x="243.009766"/>
     <use xlink:href="#DejaVuSans-76" x="270.792969"/>
     <use xlink:href="#DejaVuSans-65" x="329.972656"/>
     <use xlink:href="#DejaVuSans-72" x="391.496094"/>
     <use xlink:href="#DejaVuSans-20" x="432.609375"/>
     <use xlink:href="#DejaVuSans-6f" x="464.396484"/>
     <use xlink:href="#DejaVuSans-70" x="525.578125"/>
     <use xlink:href="#DejaVuSans-65" x="589.054688"/>
     <use xlink:href="#DejaVuSans-72" x="650.578125"/>
     <use xlink:href="#DejaVuSans-61" x="691.691406"/>
     <use xlink:href="#DejaVuSans-74" x="752.970703"/>
     <use xlink:href="#DejaVuSans-69" x="792.179688"/>
     <use xlink:href="#DejaVuSans-6e" x="819.962891"/>
     <use xlink:href="#DejaVuSans-67" x="883.341797"/>
     <use xlink:href="#DejaVuSans-20" x="946.818359"/>
     <use xlink:href="#DejaVuSans-63" x="978.605469"/>
     <use xlink:href="#DejaVuSans-68" x="1033.585938"/>
     <use xlink:href="#DejaVuSans-61" x="1096.964844"/>
     <use xlink:href="#DejaVuSans-72" x="1158.244141"/>
     <use xlink:href="#DejaVuSans-61" x="1199.357422"/>
     <use xlink:href="#DejaVuSans-63" x="1260.636719"/>
     <use xlink:href="#DejaVuSans-74" x="1315.617188"/>
     <use xlink:href="#DejaVuSans-65" x="1354.826172"/>
     <use xlink:href="#DejaVuSans-72" x="1416.349609"/>
     <use xlink:href="#DejaVuSans-69" x="1457.462891"/>
     <use xlink:href="#DejaVuSans-73" x="1485.246094"/>
     <use xlink:href="#DejaVuSans-74" x="1537.345703"/>
     <use xlink:href="#DejaVuSans-69" x="1576.554688"/>
     <use xlink:href="#DejaVuSans-63" x="1604.337891"/>
     <use xlink:href="#DejaVuSans-20" x="1659.318359"/>
     <use xlink:href="#DejaVuSans-66" x="1691.105469"/>
     <use xlink:href="#DejaVuSans-6f" x="1726.310547"/>
     <use xlink:href="#DejaVuSans-72" x="1787.492188"/>
     <use xlink:href="#DejaVuSans-20" x="1828.605469"/>
     <use xlink:href="#DejaVuSans-6d" x="1860.392578"/>
     <use xlink:href="#DejaVuSans-75" x="1957.804688"/>
     <use xlink:href="#DejaVuSans-6c" x="2021.183594"/>
     <use xlink:href="#DejaVuSans-74" x="2048.966797"/>
     <use xlink:href="#DejaVuSans-69" x="2088.175781"/>
     <use xlink:href="#DejaVuSans-63" x="2115.958984"/>
     <use xlink:href="#DejaVuSans-6c" x="2170.939453"/>
     <use xlink:href="#DejaVuSans-61" x="2198.722656"/>
     <use xlink:href="#DejaVuSans-73" x="2260.001953"/>
     <use xlink:href="#DejaVuSans-73" x="2312.101562"/>
    </g>
   </g>
   <g id="legend_1">
    <g id="patch_7">
     <path d="M 189.416875 283.430125 
L 393.90125 283.430125 
Q 395.90125 283.430125 395.90125 281.430125 
L 395.90125 165.005125 
Q 395.90125 163.005125 393.90125 163.005125 
L 189.416875 163.005125 
Q 187.416875 163.005125 187.416875 165.005125 
L 187.416875 281.430125 
Q 187.416875 283.430125 189.416875 283.430125 
z
" style="fill: #ffffff; opacity: 0.8; stroke: #cccccc; stroke-linejoin: miter"/>
    </g>
    <g id="line2d_22">
     <path d="M 191.416875 171.103562 
L 201.416875 171.103562 
L 211.416875 171.103562 
" style="fill: none; stroke: #0000ff; stroke-width: 2; stroke-linecap: square"/>
    </g>
    <g id="text_16">
     <!-- ROC curve of class 0 (AUC = 0.95) -->
     <g transform="translate(219.416875 174.603562) scale(0.1 -0.1)">
      <defs>
       <path id="DejaVuSans-4f" d="M 2522 4238 
Q 1834 4238 1429 3725 
Q 1025 3213 1025 2328 
Q 1025 1447 1429 934 
Q 1834 422 2522 422 
Q 3209 422 3611 934 
Q 4013 1447 4013 2328 
Q 4013 3213 3611 3725 
Q 3209 4238 2522 4238 
z
M 2522 4750 
Q 3503 4750 4090 4092 
Q 4678 3434 4678 2328 
Q 4678 1225 4090 567 
Q 3503 -91 2522 -91 
Q 1538 -91 948 565 
Q 359 1222 359 2328 
Q 359 3434 948 4092 
Q 1538 4750 2522 4750 
z
" transform="scale(0.015625)"/>
       <path id="DejaVuSans-43" d="M 4122 4306 
L 4122 3641 
Q 3803 3938 3442 4084 
Q 3081 4231 2675 4231 
Q 1875 4231 1450 3742 
Q 1025 3253 1025 2328 
Q 1025 1406 1450 917 
Q 1875 428 2675 428 
Q 3081 428 3442 575 
Q 3803 722 4122 1019 
L 4122 359 
Q 3791 134 3420 21 
Q 3050 -91 2638 -91 
Q 1578 -91 968 557 
Q 359 1206 359 2328 
Q 359 3453 968 4101 
Q 1578 4750 2638 4750 
Q 3056 4750 3426 4639 
Q 3797 4528 4122 4306 
z
" transform="scale(0.015625)"/>
       <path id="DejaVuSans-28" d="M 1984 4856 
Q 1566 4138 1362 3434 
Q 1159 2731 1159 2009 
Q 1159 1288 1364 580 
Q 1569 -128 1984 -844 
L 1484 -844 
Q 1016 -109 783 600 
Q 550 1309 550 2009 
Q 550 2706 781 3412 
Q 1013 4119 1484 4856 
L 1984 4856 
z
" transform="scale(0.015625)"/>
       <path id="DejaVuSans-41" d="M 2188 4044 
L 1331 1722 
L 3047 1722 
L 2188 4044 
z
M 1831 4666 
L 2547 4666 
L 4325 0 
L 3669 0 
L 3244 1197 
L 1141 1197 
L 716 0 
L 50 0 
L 1831 4666 
z
" transform="scale(0.015625)"/>
       <path id="DejaVuSans-55" d="M 556 4666 
L 1191 4666 
L 1191 1831 
Q 1191 1081 1462 751 
Q 1734 422 2344 422 
Q 2950 422 3222 751 
Q 3494 1081 3494 1831 
L 3494 4666 
L 4128 4666 
L 4128 1753 
Q 4128 841 3676 375 
Q 3225 -91 2344 -91 
Q 1459 -91 1007 375 
Q 556 841 556 1753 
L 556 4666 
z
" transform="scale(0.015625)"/>
       <path id="DejaVuSans-3d" d="M 678 2906 
L 4684 2906 
L 4684 2381 
L 678 2381 
L 678 2906 
z
M 678 1631 
L 4684 1631 
L 4684 1100 
L 678 1100 
L 678 1631 
z
" transform="scale(0.015625)"/>
       <path id="DejaVuSans-39" d="M 703 97 
L 703 672 
Q 941 559 1184 500 
Q 1428 441 1663 441 
Q 2288 441 2617 861 
Q 2947 1281 2994 2138 
Q 2813 1869 2534 1725 
Q 2256 1581 1919 1581 
Q 1219 1581 811 2004 
Q 403 2428 403 3163 
Q 403 3881 828 4315 
Q 1253 4750 1959 4750 
Q 2769 4750 3195 4129 
Q 3622 3509 3622 2328 
Q 3622 1225 3098 567 
Q 2575 -91 1691 -91 
Q 1453 -91 1209 -44 
Q 966 3 703 97 
z
M 1959 2075 
Q 2384 2075 2632 2365 
Q 2881 2656 2881 3163 
Q 2881 3666 2632 3958 
Q 2384 4250 1959 4250 
Q 1534 4250 1286 3958 
Q 1038 3666 1038 3163 
Q 1038 2656 1286 2365 
Q 1534 2075 1959 2075 
z
" transform="scale(0.015625)"/>
       <path id="DejaVuSans-35" d="M 691 4666 
L 3169 4666 
L 3169 4134 
L 1269 4134 
L 1269 2991 
Q 1406 3038 1543 3061 
Q 1681 3084 1819 3084 
Q 2600 3084 3056 2656 
Q 3513 2228 3513 1497 
Q 3513 744 3044 326 
Q 2575 -91 1722 -91 
Q 1428 -91 1123 -41 
Q 819 9 494 109 
L 494 744 
Q 775 591 1075 516 
Q 1375 441 1709 441 
Q 2250 441 2565 725 
Q 2881 1009 2881 1497 
Q 2881 1984 2565 2268 
Q 2250 2553 1709 2553 
Q 1456 2553 1204 2497 
Q 953 2441 691 2322 
L 691 4666 
z
" transform="scale(0.015625)"/>
       <path id="DejaVuSans-29" d="M 513 4856 
L 1013 4856 
Q 1481 4119 1714 3412 
Q 1947 2706 1947 2009 
Q 1947 1309 1714 600 
Q 1481 -109 1013 -844 
L 513 -844 
Q 928 -128 1133 580 
Q 1338 1288 1338 2009 
Q 1338 2731 1133 3434 
Q 928 4138 513 4856 
z
" transform="scale(0.015625)"/>
      </defs>
      <use xlink:href="#DejaVuSans-52"/>
      <use xlink:href="#DejaVuSans-4f" x="69.482422"/>
      <use xlink:href="#DejaVuSans-43" x="148.193359"/>
      <use xlink:href="#DejaVuSans-20" x="218.017578"/>
      <use xlink:href="#DejaVuSans-63" x="249.804688"/>
      <use xlink:href="#DejaVuSans-75" x="304.785156"/>
      <use xlink:href="#DejaVuSans-72" x="368.164062"/>
      <use xlink:href="#DejaVuSans-76" x="409.277344"/>
      <use xlink:href="#DejaVuSans-65" x="468.457031"/>
      <use xlink:href="#DejaVuSans-20" x="529.980469"/>
      <use xlink:href="#DejaVuSans-6f" x="561.767578"/>
      <use xlink:href="#DejaVuSans-66" x="622.949219"/>
      <use xlink:href="#DejaVuSans-20" x="658.154297"/>
      <use xlink:href="#DejaVuSans-63" x="689.941406"/>
      <use xlink:href="#DejaVuSans-6c" x="744.921875"/>
      <use xlink:href="#DejaVuSans-61" x="772.705078"/>
      <use xlink:href="#DejaVuSans-73" x="833.984375"/>
      <use xlink:href="#DejaVuSans-73" x="886.083984"/>
      <use xlink:href="#DejaVuSans-20" x="938.183594"/>
      <use xlink:href="#DejaVuSans-30" x="969.970703"/>
      <use xlink:href="#DejaVuSans-20" x="1033.59375"/>
      <use xlink:href="#DejaVuSans-28" x="1065.380859"/>
      <use xlink:href="#DejaVuSans-41" x="1104.394531"/>
      <use xlink:href="#DejaVuSans-55" x="1172.802734"/>
      <use xlink:href="#DejaVuSans-43" x="1245.996094"/>
      <use xlink:href="#DejaVuSans-20" x="1315.820312"/>
      <use xlink:href="#DejaVuSans-3d" x="1347.607422"/>
      <use xlink:href="#DejaVuSans-20" x="1431.396484"/>
      <use xlink:href="#DejaVuSans-30" x="1463.183594"/>
      <use xlink:href="#DejaVuSans-2e" x="1526.806641"/>
      <use xlink:href="#DejaVuSans-39" x="1558.59375"/>
      <use xlink:href="#DejaVuSans-35" x="1622.216797"/>
      <use xlink:href="#DejaVuSans-29" x="1685.839844"/>
     </g>
    </g>
    <g id="line2d_23">
     <path d="M 191.416875 185.781687 
L 201.416875 185.781687 
L 211.416875 185.781687 
" style="fill: none; stroke: #800080; stroke-width: 2; stroke-linecap: square"/>
    </g>
    <g id="text_17">
     <!-- ROC curve of class 1 (AUC = 0.96) -->
     <g transform="translate(219.416875 189.281687) scale(0.1 -0.1)">
      <use xlink:href="#DejaVuSans-52"/>
      <use xlink:href="#DejaVuSans-4f" x="69.482422"/>
      <use xlink:href="#DejaVuSans-43" x="148.193359"/>
      <use xlink:href="#DejaVuSans-20" x="218.017578"/>
      <use xlink:href="#DejaVuSans-63" x="249.804688"/>
      <use xlink:href="#DejaVuSans-75" x="304.785156"/>
      <use xlink:href="#DejaVuSans-72" x="368.164062"/>
      <use xlink:href="#DejaVuSans-76" x="409.277344"/>
      <use xlink:href="#DejaVuSans-65" x="468.457031"/>
      <use xlink:href="#DejaVuSans-20" x="529.980469"/>
      <use xlink:href="#DejaVuSans-6f" x="561.767578"/>
      <use xlink:href="#DejaVuSans-66" x="622.949219"/>
      <use xlink:href="#DejaVuSans-20" x="658.154297"/>
      <use xlink:href="#DejaVuSans-63" x="689.941406"/>
      <use xlink:href="#DejaVuSans-6c" x="744.921875"/>
      <use xlink:href="#DejaVuSans-61" x="772.705078"/>
      <use xlink:href="#DejaVuSans-73" x="833.984375"/>
      <use xlink:href="#DejaVuSans-73" x="886.083984"/>
      <use xlink:href="#DejaVuSans-20" x="938.183594"/>
      <use xlink:href="#DejaVuSans-31" x="969.970703"/>
      <use xlink:href="#DejaVuSans-20" x="1033.59375"/>
      <use xlink:href="#DejaVuSans-28" x="1065.380859"/>
      <use xlink:href="#DejaVuSans-41" x="1104.394531"/>
      <use xlink:href="#DejaVuSans-55" x="1172.802734"/>
      <use xlink:href="#DejaVuSans-43" x="1245.996094"/>
      <use xlink:href="#DejaVuSans-20" x="1315.820312"/>
      <use xlink:href="#DejaVuSans-3d" x="1347.607422"/>
      <use xlink:href="#DejaVuSans-20" x="1431.396484"/>
      <use xlink:href="#DejaVuSans-30" x="1463.183594"/>
      <use xlink:href="#DejaVuSans-2e" x="1526.806641"/>
      <use xlink:href="#DejaVuSans-39" x="1558.59375"/>
      <use xlink:href="#DejaVuSans-36" x="1622.216797"/>
      <use xlink:href="#DejaVuSans-29" x="1685.839844"/>
     </g>
    </g>
    <g id="line2d_24">
     <path d="M 191.416875 200.459812 
L 201.416875 200.459812 
L 211.416875 200.459812 
" style="fill: none; stroke: #ffa500; stroke-width: 2; stroke-linecap: square"/>
    </g>
    <g id="text_18">
     <!-- ROC curve of class 2 (AUC = 1.00) -->
     <g transform="translate(219.416875 203.959812) scale(0.1 -0.1)">
      <use xlink:href="#DejaVuSans-52"/>
      <use xlink:href="#DejaVuSans-4f" x="69.482422"/>
      <use xlink:href="#DejaVuSans-43" x="148.193359"/>
      <use xlink:href="#DejaVuSans-20" x="218.017578"/>
      <use xlink:href="#DejaVuSans-63" x="249.804688"/>
      <use xlink:href="#DejaVuSans-75" x="304.785156"/>
      <use xlink:href="#DejaVuSans-72" x="368.164062"/>
      <use xlink:href="#DejaVuSans-76" x="409.277344"/>
      <use xlink:href="#DejaVuSans-65" x="468.457031"/>
      <use xlink:href="#DejaVuSans-20" x="529.980469"/>
      <use xlink:href="#DejaVuSans-6f" x="561.767578"/>
      <use xlink:href="#DejaVuSans-66" x="622.949219"/>
      <use xlink:href="#DejaVuSans-20" x="658.154297"/>
      <use xlink:href="#DejaVuSans-63" x="689.941406"/>
      <use xlink:href="#DejaVuSans-6c" x="744.921875"/>
      <use xlink:href="#DejaVuSans-61" x="772.705078"/>
      <use xlink:href="#DejaVuSans-73" x="833.984375"/>
      <use xlink:href="#DejaVuSans-73" x="886.083984"/>
      <use xlink:href="#DejaVuSans-20" x="938.183594"/>
      <use xlink:href="#DejaVuSans-32" x="969.970703"/>
      <use xlink:href="#DejaVuSans-20" x="1033.59375"/>
      <use xlink:href="#DejaVuSans-28" x="1065.380859"/>
      <use xlink:href="#DejaVuSans-41" x="1104.394531"/>
      <use xlink:href="#DejaVuSans-55" x="1172.802734"/>
      <use xlink:href="#DejaVuSans-43" x="1245.996094"/>
      <use xlink:href="#DejaVuSans-20" x="1315.820312"/>
      <use xlink:href="#DejaVuSans-3d" x="1347.607422"/>
      <use xlink:href="#DejaVuSans-20" x="1431.396484"/>
      <use xlink:href="#DejaVuSans-31" x="1463.183594"/>
      <use xlink:href="#DejaVuSans-2e" x="1526.806641"/>
      <use xlink:href="#DejaVuSans-30" x="1558.59375"/>
      <use xlink:href="#DejaVuSans-30" x="1622.216797"/>
      <use xlink:href="#DejaVuSans-29" x="1685.839844"/>
     </g>
    </g>
    <g id="line2d_25">
     <path d="M 191.416875 215.137937 
L 201.416875 215.137937 
L 211.416875 215.137937 
" style="fill: none; stroke: #00ffff; stroke-width: 2; stroke-linecap: square"/>
    </g>
    <g id="text_19">
     <!-- ROC curve of class 3 (AUC = 0.97) -->
     <g transform="translate(219.416875 218.637937) scale(0.1 -0.1)">
      <defs>
       <path id="DejaVuSans-33" d="M 2597 2516 
Q 3050 2419 3304 2112 
Q 3559 1806 3559 1356 
Q 3559 666 3084 287 
Q 2609 -91 1734 -91 
Q 1441 -91 1130 -33 
Q 819 25 488 141 
L 488 750 
Q 750 597 1062 519 
Q 1375 441 1716 441 
Q 2309 441 2620 675 
Q 2931 909 2931 1356 
Q 2931 1769 2642 2001 
Q 2353 2234 1838 2234 
L 1294 2234 
L 1294 2753 
L 1863 2753 
Q 2328 2753 2575 2939 
Q 2822 3125 2822 3475 
Q 2822 3834 2567 4026 
Q 2313 4219 1838 4219 
Q 1578 4219 1281 4162 
Q 984 4106 628 3988 
L 628 4550 
Q 988 4650 1302 4700 
Q 1616 4750 1894 4750 
Q 2613 4750 3031 4423 
Q 3450 4097 3450 3541 
Q 3450 3153 3228 2886 
Q 3006 2619 2597 2516 
z
" transform="scale(0.015625)"/>
       <path id="DejaVuSans-37" d="M 525 4666 
L 3525 4666 
L 3525 4397 
L 1831 0 
L 1172 0 
L 2766 4134 
L 525 4134 
L 525 4666 
z
" transform="scale(0.015625)"/>
      </defs>
      <use xlink:href="#DejaVuSans-52"/>
      <use xlink:href="#DejaVuSans-4f" x="69.482422"/>
      <use xlink:href="#DejaVuSans-43" x="148.193359"/>
      <use xlink:href="#DejaVuSans-20" x="218.017578"/>
      <use xlink:href="#DejaVuSans-63" x="249.804688"/>
      <use xlink:href="#DejaVuSans-75" x="304.785156"/>
      <use xlink:href="#DejaVuSans-72" x="368.164062"/>
      <use xlink:href="#DejaVuSans-76" x="409.277344"/>
      <use xlink:href="#DejaVuSans-65" x="468.457031"/>
      <use xlink:href="#DejaVuSans-20" x="529.980469"/>
      <use xlink:href="#DejaVuSans-6f" x="561.767578"/>
      <use xlink:href="#DejaVuSans-66" x="622.949219"/>
      <use xlink:href="#DejaVuSans-20" x="658.154297"/>
      <use xlink:href="#DejaVuSans-63" x="689.941406"/>
      <use xlink:href="#DejaVuSans-6c" x="744.921875"/>
      <use xlink:href="#DejaVuSans-61" x="772.705078"/>
      <use xlink:href="#DejaVuSans-73" x="833.984375"/>
      <use xlink:href="#DejaVuSans-73" x="886.083984"/>
      <use xlink:href="#DejaVuSans-20" x="938.183594"/>
      <use xlink:href="#DejaVuSans-33" x="969.970703"/>
      <use xlink:href="#DejaVuSans-20" x="1033.59375"/>
      <use xlink:href="#DejaVuSans-28" x="1065.380859"/>
      <use xlink:href="#DejaVuSans-41" x="1104.394531"/>
      <use xlink:href="#DejaVuSans-55" x="1172.802734"/>
      <use xlink:href="#DejaVuSans-43" x="1245.996094"/>
      <use xlink:href="#DejaVuSans-20" x="1315.820312"/>
      <use xlink:href="#DejaVuSans-3d" x="1347.607422"/>
      <use xlink:href="#DejaVuSans-20" x="1431.396484"/>
      <use xlink:href="#DejaVuSans-30" x="1463.183594"/>
      <use xlink:href="#DejaVuSans-2e" x="1526.806641"/>
      <use xlink:href="#DejaVuSans-39" x="1558.59375"/>
      <use xlink:href="#DejaVuSans-37" x="1622.216797"/>
      <use xlink:href="#DejaVuSans-29" x="1685.839844"/>
     </g>
    </g>
    <g id="line2d_26">
     <path d="M 191.416875 229.816062 
L 201.416875 229.816062 
L 211.416875 229.816062 
" style="fill: none; stroke: #808080; stroke-width: 2; stroke-linecap: square"/>
    </g>
    <g id="text_20">
     <!-- ROC curve of class 4 (AUC = 0.92) -->
     <g transform="translate(219.416875 233.316062) scale(0.1 -0.1)">
      <use xlink:href="#DejaVuSans-52"/>
      <use xlink:href="#DejaVuSans-4f" x="69.482422"/>
      <use xlink:href="#DejaVuSans-43" x="148.193359"/>
      <use xlink:href="#DejaVuSans-20" x="218.017578"/>
      <use xlink:href="#DejaVuSans-63" x="249.804688"/>
      <use xlink:href="#DejaVuSans-75" x="304.785156"/>
      <use xlink:href="#DejaVuSans-72" x="368.164062"/>
      <use xlink:href="#DejaVuSans-76" x="409.277344"/>
      <use xlink:href="#DejaVuSans-65" x="468.457031"/>
      <use xlink:href="#DejaVuSans-20" x="529.980469"/>
      <use xlink:href="#DejaVuSans-6f" x="561.767578"/>
      <use xlink:href="#DejaVuSans-66" x="622.949219"/>
      <use xlink:href="#DejaVuSans-20" x="658.154297"/>
      <use xlink:href="#DejaVuSans-63" x="689.941406"/>
      <use xlink:href="#DejaVuSans-6c" x="744.921875"/>
      <use xlink:href="#DejaVuSans-61" x="772.705078"/>
      <use xlink:href="#DejaVuSans-73" x="833.984375"/>
      <use xlink:href="#DejaVuSans-73" x="886.083984"/>
      <use xlink:href="#DejaVuSans-20" x="938.183594"/>
      <use xlink:href="#DejaVuSans-34" x="969.970703"/>
      <use xlink:href="#DejaVuSans-20" x="1033.59375"/>
      <use xlink:href="#DejaVuSans-28" x="1065.380859"/>
      <use xlink:href="#DejaVuSans-41" x="1104.394531"/>
      <use xlink:href="#DejaVuSans-55" x="1172.802734"/>
      <use xlink:href="#DejaVuSans-43" x="1245.996094"/>
      <use xlink:href="#DejaVuSans-20" x="1315.820312"/>
      <use xlink:href="#DejaVuSans-3d" x="1347.607422"/>
      <use xlink:href="#DejaVuSans-20" x="1431.396484"/>
      <use xlink:href="#DejaVuSans-30" x="1463.183594"/>
      <use xlink:href="#DejaVuSans-2e" x="1526.806641"/>
      <use xlink:href="#DejaVuSans-39" x="1558.59375"/>
      <use xlink:href="#DejaVuSans-32" x="1622.216797"/>
      <use xlink:href="#DejaVuSans-29" x="1685.839844"/>
     </g>
    </g>
    <g id="line2d_27">
     <path d="M 191.416875 244.494187 
L 201.416875 244.494187 
L 211.416875 244.494187 
" style="fill: none; stroke: #008000; stroke-width: 2; stroke-linecap: square"/>
    </g>
    <g id="text_21">
     <!-- ROC curve of class 5 (AUC = 0.76) -->
     <g transform="translate(219.416875 247.994187) scale(0.1 -0.1)">
      <use xlink:href="#DejaVuSans-52"/>
      <use xlink:href="#DejaVuSans-4f" x="69.482422"/>
      <use xlink:href="#DejaVuSans-43" x="148.193359"/>
      <use xlink:href="#DejaVuSans-20" x="218.017578"/>
      <use xlink:href="#DejaVuSans-63" x="249.804688"/>
      <use xlink:href="#DejaVuSans-75" x="304.785156"/>
      <use xlink:href="#DejaVuSans-72" x="368.164062"/>
      <use xlink:href="#DejaVuSans-76" x="409.277344"/>
      <use xlink:href="#DejaVuSans-65" x="468.457031"/>
      <use xlink:href="#DejaVuSans-20" x="529.980469"/>
      <use xlink:href="#DejaVuSans-6f" x="561.767578"/>
      <use xlink:href="#DejaVuSans-66" x="622.949219"/>
      <use xlink:href="#DejaVuSans-20" x="658.154297"/>
      <use xlink:href="#DejaVuSans-63" x="689.941406"/>
      <use xlink:href="#DejaVuSans-6c" x="744.921875"/>
      <use xlink:href="#DejaVuSans-61" x="772.705078"/>
      <use xlink:href="#DejaVuSans-73" x="833.984375"/>
      <use xlink:href="#DejaVuSans-73" x="886.083984"/>
      <use xlink:href="#DejaVuSans-20" x="938.183594"/>
      <use xlink:href="#DejaVuSans-35" x="969.970703"/>
      <use xlink:href="#DejaVuSans-20" x="1033.59375"/>
      <use xlink:href="#DejaVuSans-28" x="1065.380859"/>
      <use xlink:href="#DejaVuSans-41" x="1104.394531"/>
      <use xlink:href="#DejaVuSans-55" x="1172.802734"/>
      <use xlink:href="#DejaVuSans-43" x="1245.996094"/>
      <use xlink:href="#DejaVuSans-20" x="1315.820312"/>
      <use xlink:href="#DejaVuSans-3d" x="1347.607422"/>
      <use xlink:href="#DejaVuSans-20" x="1431.396484"/>
      <use xlink:href="#DejaVuSans-30" x="1463.183594"/>
      <use xlink:href="#DejaVuSans-2e" x="1526.806641"/>
      <use xlink:href="#DejaVuSans-37" x="1558.59375"/>
      <use xlink:href="#DejaVuSans-36" x="1622.216797"/>
      <use xlink:href="#DejaVuSans-29" x="1685.839844"/>
     </g>
    </g>
    <g id="line2d_28">
     <path d="M 191.416875 259.172312 
L 201.416875 259.172312 
L 211.416875 259.172312 
" style="fill: none; stroke: #ff0000; stroke-width: 2; stroke-linecap: square"/>
    </g>
    <g id="text_22">
     <!-- ROC curve of class 6 (AUC = 0.96) -->
     <g transform="translate(219.416875 262.672312) scale(0.1 -0.1)">
      <use xlink:href="#DejaVuSans-52"/>
      <use xlink:href="#DejaVuSans-4f" x="69.482422"/>
      <use xlink:href="#DejaVuSans-43" x="148.193359"/>
      <use xlink:href="#DejaVuSans-20" x="218.017578"/>
      <use xlink:href="#DejaVuSans-63" x="249.804688"/>
      <use xlink:href="#DejaVuSans-75" x="304.785156"/>
      <use xlink:href="#DejaVuSans-72" x="368.164062"/>
      <use xlink:href="#DejaVuSans-76" x="409.277344"/>
      <use xlink:href="#DejaVuSans-65" x="468.457031"/>
      <use xlink:href="#DejaVuSans-20" x="529.980469"/>
      <use xlink:href="#DejaVuSans-6f" x="561.767578"/>
      <use xlink:href="#DejaVuSans-66" x="622.949219"/>
      <use xlink:href="#DejaVuSans-20" x="658.154297"/>
      <use xlink:href="#DejaVuSans-63" x="689.941406"/>
      <use xlink:href="#DejaVuSans-6c" x="744.921875"/>
      <use xlink:href="#DejaVuSans-61" x="772.705078"/>
      <use xlink:href="#DejaVuSans-73" x="833.984375"/>
      <use xlink:href="#DejaVuSans-73" x="886.083984"/>
      <use xlink:href="#DejaVuSans-20" x="938.183594"/>
      <use xlink:href="#DejaVuSans-36" x="969.970703"/>
      <use xlink:href="#DejaVuSans-20" x="1033.59375"/>
      <use xlink:href="#DejaVuSans-28" x="1065.380859"/>
      <use xlink:href="#DejaVuSans-41" x="1104.394531"/>
      <use xlink:href="#DejaVuSans-55" x="1172.802734"/>
      <use xlink:href="#DejaVuSans-43" x="1245.996094"/>
      <use xlink:href="#DejaVuSans-20" x="1315.820312"/>
      <use xlink:href="#DejaVuSans-3d" x="1347.607422"/>
      <use xlink:href="#DejaVuSans-20" x="1431.396484"/>
      <use xlink:href="#DejaVuSans-30" x="1463.183594"/>
      <use xlink:href="#DejaVuSans-2e" x="1526.806641"/>
      <use xlink:href="#DejaVuSans-39" x="1558.59375"/>
      <use xlink:href="#DejaVuSans-36" x="1622.216797"/>
      <use xlink:href="#DejaVuSans-29" x="1685.839844"/>
     </g>
    </g>
    <g id="line2d_29">
     <path d="M 191.416875 273.850437 
L 201.416875 273.850437 
L 211.416875 273.850437 
" style="fill: none; stroke: #ff00ff; stroke-width: 2; stroke-linecap: square"/>
    </g>
    <g id="text_23">
     <!-- ROC curve of class 7 (AUC = 0.91) -->
     <g transform="translate(219.416875 277.350437) scale(0.1 -0.1)">
      <use xlink:href="#DejaVuSans-52"/>
      <use xlink:href="#DejaVuSans-4f" x="69.482422"/>
      <use xlink:href="#DejaVuSans-43" x="148.193359"/>
      <use xlink:href="#DejaVuSans-20" x="218.017578"/>
      <use xlink:href="#DejaVuSans-63" x="249.804688"/>
      <use xlink:href="#DejaVuSans-75" x="304.785156"/>
      <use xlink:href="#DejaVuSans-72" x="368.164062"/>
      <use xlink:href="#DejaVuSans-76" x="409.277344"/>
      <use xlink:href="#DejaVuSans-65" x="468.457031"/>
      <use xlink:href="#DejaVuSans-20" x="529.980469"/>
      <use xlink:href="#DejaVuSans-6f" x="561.767578"/>
      <use xlink:href="#DejaVuSans-66" x="622.949219"/>
      <use xlink:href="#DejaVuSans-20" x="658.154297"/>
      <use xlink:href="#DejaVuSans-63" x="689.941406"/>
      <use xlink:href="#DejaVuSans-6c" x="744.921875"/>
      <use xlink:href="#DejaVuSans-61" x="772.705078"/>
      <use xlink:href="#DejaVuSans-73" x="833.984375"/>
      <use xlink:href="#DejaVuSans-73" x="886.083984"/>
      <use xlink:href="#DejaVuSans-20" x="938.183594"/>
      <use xlink:href="#DejaVuSans-37" x="969.970703"/>
      <use xlink:href="#DejaVuSans-20" x="1033.59375"/>
      <use xlink:href="#DejaVuSans-28" x="1065.380859"/>
      <use xlink:href="#DejaVuSans-41" x="1104.394531"/>
      <use xlink:href="#DejaVuSans-55" x="1172.802734"/>
      <use xlink:href="#DejaVuSans-43" x="1245.996094"/>
      <use xlink:href="#DejaVuSans-20" x="1315.820312"/>
      <use xlink:href="#DejaVuSans-3d" x="1347.607422"/>
      <use xlink:href="#DejaVuSans-20" x="1431.396484"/>
      <use xlink:href="#DejaVuSans-30" x="1463.183594"/>
      <use xlink:href="#DejaVuSans-2e" x="1526.806641"/>
      <use xlink:href="#DejaVuSans-39" x="1558.59375"/>
      <use xlink:href="#DejaVuSans-31" x="1622.216797"/>
      <use xlink:href="#DejaVuSans-29" x="1685.839844"/>
     </g>
    </g>
   </g>
  </g>
 </g>
 <defs>
  <clipPath id="pf0f1e59666">
   <rect x="43.78125" y="22.318125" width="357.12" height="266.112"/>
  </clipPath>
 </defs>
</svg>
